/* XPM */
static char * gizi_xpm[] = {
"32 32 5 1",
" 	c None",
".	c #000000",
"+	c #880000",
"@	c #00FF00",
"#	c #00FFFF",
"   ##########################   ",
" ############################## ",
" ############################## ",
"######.....#####################",
"#####..###..####################",
"####..#####.####################",
"####..#########....####....#####",
"####..########..##..##..##..####",
"####..##....##......##..##..####",
"####..####..##..######..##..####",
"####..####..##..######..##..####",
"#####..###..##..##..##..##..####",
"######....#.###....####....#####",
"################################",
"#########+++####################",
"######+++@@@++############+++###",
"#####+@@@@@@@@+++######+++@@@+##",
"####+@@@@@@@@@@@@+####+@@@@@@@++",
"###+@@.....@@@..@@++++@@@@..@@@@",
"##+@@..@@@..@@..@@@@@@@@@@..@@@@",
"++@@..@@@@@.@@@@@@@@@@@@@@@@@@@@",
"@@@@..@@@@@@@@..@@......@@..@@@@",
"@@@@..@@@@@@@@..@@@@@@..@@..@@@@",
"@@@@..@@....@@..@@@@@..@@@..@@@@",
"@@@@..@@@@..@@..@@@@..@@@@..@@@@",
"@@@@..@@@@..@@..@@@..@@@@@..@@@@",
"@@@@@..@@@..@@..@@..@@@@@@..@@@@",
"@@@@@@....@.@@..@@......@@..@@@@",
"@@@@@@@@@@@@@@@@@@@@@@@@@@@@@@@@",
" @@@@@@@@@@@@@@@@@@@@@@@@@@@@@@ ",
" @@@@@@@@@@@@@@@@@@@@@@@@@@@@@@ ",
"   @@@@@@@@@@@@@@@@@@@@@@@@@@   "};
