#define globe_10_width 32
#define globe_10_height 32
static char globe_10_bits[] = {
  0x00, 0x00, 0x06, 0x00, 0x00, 0xF4, 0x2F, 0x00, 0x00, 0xC8, 0x4F, 0x00, 
  0x00, 0x80, 0xFF, 0x01, 0x00, 0x80, 0xFF, 0x01, 0x00, 0x80, 0xFF, 0x01, 
  0x00, 0x00, 0xFF, 0x01, 0x00, 0x00, 0xFE, 0x01, 0x00, 0x00, 0x3C, 0x00, 
  0x00, 0x00, 0x3C, 0x00, 0x00, 0x00, 0x30, 0x04, 0x00, 0x00, 0xE0, 0x00, 
  0x00, 0x00, 0x00, 0x01, 0x00, 0x00, 0x00, 0x3A, 0x00, 0x00, 0x00, 0x38, 
  0x00, 0x00, 0x00, 0x78, 0x00, 0x00, 0x00, 0xF8, 0x00, 0x00, 0x00, 0xFC, 
  0x00, 0x00, 0x00, 0xF8, 0x00, 0x00, 0x00, 0xF8, 0x00, 0x00, 0x00, 0xF8, 
  0x00, 0x00, 0x00, 0x70, 0x00, 0x00, 0x00, 0x70, 0x00, 0x00, 0x00, 0x38, 
  0x00, 0x00, 0x00, 0x18, 0x00, 0x00, 0x00, 0x0C, 0x00, 0x00, 0x00, 0x06, 
  0x00, 0x00, 0x00, 0x03, 0x00, 0x00, 0x00, 0x00, 0x00, 0x00, 0x00, 0x00, 
  0x00, 0x00, 0x00, 0x00, 0x00, 0x00, 0x10, 0x00, };
