#define globe_18_width 32
#define globe_18_height 32
static char globe_18_bits[] = {
  0x00, 0x00, 0x00, 0x00, 0x00, 0xFC, 0x2F, 0x00, 0x00, 0xFF, 0x84, 0x00, 
  0x80, 0xFF, 0x04, 0x00, 0xE0, 0x7F, 0x00, 0x00, 0xF0, 0x9F, 0x00, 0x00, 
  0xF0, 0x97, 0x00, 0x00, 0xF8, 0x27, 0x00, 0x00, 0xFC, 0x07, 0x00, 0x00, 
  0xFC, 0x03, 0x00, 0x00, 0x6C, 0x00, 0x00, 0x00, 0x64, 0x00, 0x00, 0x00, 
  0x60, 0x04, 0x00, 0x00, 0x40, 0x00, 0x00, 0x00, 0x20, 0x00, 0x00, 0x00, 
  0x20, 0x01, 0x00, 0x00, 0xA0, 0x01, 0x00, 0x00, 0x00, 0xC0, 0x05, 0x00, 
  0x00, 0x88, 0x00, 0x00, 0x00, 0x00, 0x00, 0x00, 0x00, 0x38, 0x01, 0x00, 
  0x00, 0xFC, 0x01, 0x00, 0x00, 0xFE, 0x03, 0x00, 0x00, 0xFE, 0x03, 0x00, 
  0x00, 0xFC, 0x03, 0x00, 0x00, 0x80, 0x03, 0x00, 0x00, 0x00, 0x00, 0x00, 
  0x00, 0x00, 0x20, 0x00, 0x00, 0x00, 0x00, 0x00, 0x00, 0x00, 0x00, 0x00, 
  0x00, 0x00, 0x00, 0x00, 0x00, 0xF0, 0x03, 0x00, };
