#define globe_17_width 32
#define globe_17_height 32
static char globe_17_bits[] = {
  0x00, 0x00, 0x00, 0x00, 0x00, 0xFC, 0x37, 0x00, 0x00, 0x3F, 0x42, 0x00, 
  0x80, 0x3F, 0x01, 0x02, 0xE0, 0x1F, 0x00, 0x00, 0xF0, 0x07, 0x00, 0x00, 
  0xF0, 0x11, 0x00, 0x00, 0xF8, 0x04, 0x00, 0x00, 0xFC, 0x00, 0x00, 0x00, 
  0x7C, 0x00, 0x00, 0x00, 0x1A, 0x00, 0x00, 0x00, 0x9A, 0x00, 0x00, 0x00, 
  0x18, 0x00, 0x00, 0x00, 0x00, 0x00, 0x00, 0x00, 0x00, 0x00, 0x00, 0x00, 
  0x20, 0x00, 0x00, 0x00, 0x28, 0x00, 0x00, 0x00, 0x08, 0x18, 0x00, 0x00, 
  0x00, 0x30, 0x00, 0x00, 0x00, 0x10, 0x00, 0x00, 0x00, 0x17, 0x00, 0x00, 
  0x00, 0x3F, 0x00, 0x00, 0xC0, 0x7F, 0x00, 0x00, 0x80, 0x7F, 0x00, 0x00, 
  0x80, 0x7F, 0x00, 0x00, 0x00, 0x70, 0x00, 0x00, 0x00, 0x00, 0x10, 0x00, 
  0x00, 0x00, 0x00, 0x00, 0x00, 0x00, 0x00, 0x00, 0x00, 0x00, 0x00, 0x00, 
  0x00, 0x00, 0x00, 0x00, 0x00, 0xF0, 0x01, 0x00, };
