#define globe_16_width 32
#define globe_16_height 32
static char globe_16_bits[] = {
  0x00, 0x00, 0x00, 0x00, 0x00, 0xFC, 0x3B, 0x00, 0x00, 0x9F, 0xA0, 0x00, 
  0x80, 0x4F, 0x00, 0x02, 0xE0, 0x0F, 0x00, 0x04, 0xF0, 0x01, 0x00, 0x08, 
  0x70, 0x00, 0x00, 0x10, 0x38, 0x00, 0x00, 0x20, 0x3C, 0x00, 0x00, 0x00, 
  0x1C, 0x00, 0x00, 0x00, 0x06, 0x00, 0x00, 0x00, 0x04, 0x00, 0x00, 0x00, 
  0x04, 0x00, 0x00, 0x00, 0x00, 0x00, 0x00, 0x00, 0x20, 0x00, 0x00, 0x00, 
  0x0A, 0x00, 0x00, 0x00, 0x0A, 0x00, 0x00, 0x00, 0x00, 0x03, 0x00, 0x00, 
  0x28, 0x06, 0x00, 0x00, 0x00, 0x00, 0x00, 0x00, 0xC0, 0x02, 0x00, 0x00, 
  0xE0, 0x07, 0x00, 0x00, 0xF0, 0x0F, 0x00, 0x00, 0xE0, 0x1F, 0x00, 0x00, 
  0xE0, 0x1F, 0x00, 0x00, 0x00, 0x0C, 0x00, 0x00, 0x00, 0x00, 0x00, 0x00, 
  0x00, 0x00, 0x01, 0x00, 0x00, 0x00, 0x00, 0x00, 0x00, 0x00, 0x00, 0x00, 
  0x00, 0x00, 0x00, 0x00, 0x00, 0xF0, 0x00, 0x00, };
