#define globe_06_width 32
#define globe_06_height 32
static char globe_06_bits[] = {
  0x00, 0x80, 0x07, 0x00, 0x00, 0x7C, 0x0D, 0x00, 0x00, 0x9F, 0x03, 0x00, 
  0x00, 0xFF, 0x07, 0x02, 0x00, 0xFF, 0x03, 0x04, 0x80, 0xFF, 0x00, 0x08, 
  0xC0, 0x7F, 0x00, 0x00, 0x80, 0x3F, 0x00, 0x30, 0x80, 0x07, 0x00, 0x20, 
  0x00, 0x03, 0x00, 0x60, 0x00, 0x03, 0x00, 0x60, 0x00, 0x0E, 0x00, 0x60, 
  0x00, 0x10, 0x00, 0xE0, 0x00, 0x80, 0x07, 0xC0, 0x00, 0x80, 0x0F, 0xC0, 
  0x00, 0x80, 0x3F, 0x00, 0x00, 0xC0, 0x7F, 0x00, 0x00, 0xC0, 0xFF, 0x01, 
  0x00, 0xC0, 0xFF, 0x03, 0x00, 0x80, 0xFF, 0x01, 0x00, 0x80, 0xFF, 0x01, 
  0x00, 0x00, 0xFE, 0x00, 0x00, 0x00, 0x7E, 0x00, 0x00, 0x00, 0x3E, 0x00, 
  0x00, 0x00, 0x1F, 0x00, 0x00, 0x00, 0x0F, 0x00, 0x00, 0x00, 0x03, 0x00, 
  0x00, 0x00, 0x03, 0x00, 0x00, 0x00, 0x01, 0x00, 0x00, 0x00, 0x00, 0x00, 
  0x00, 0x00, 0x00, 0x00, 0x00, 0x00, 0x01, 0x00, };
