#define globe_08_width 32
#define globe_08_height 32
static char globe_08_bits[] = {
  0x00, 0x00, 0x07, 0x00, 0x00, 0xFC, 0x25, 0x00, 0x00, 0xF8, 0x19, 0x00, 
  0x00, 0xF8, 0x7F, 0x00, 0x00, 0xF8, 0x3F, 0x00, 0x00, 0xF8, 0x1F, 0x00, 
  0x00, 0xF8, 0x1F, 0x00, 0x00, 0xF8, 0x0F, 0x00, 0x00, 0xF0, 0x08, 0x00, 
  0x00, 0xF0, 0x00, 0x00, 0x00, 0xC0, 0x04, 0x00, 0x00, 0x80, 0x03, 0x00, 
  0x00, 0x00, 0x0C, 0x00, 0x00, 0x00, 0xC8, 0x01, 0x00, 0x00, 0xE0, 0x03, 
  0x00, 0x00, 0xE0, 0x0F, 0x00, 0x00, 0xE0, 0x0F, 0x00, 0x00, 0xF0, 0x3F, 
  0x00, 0x00, 0xE0, 0x3F, 0x00, 0x00, 0xE0, 0x3F, 0x00, 0x00, 0xC0, 0x1F, 
  0x00, 0x00, 0x80, 0x1F, 0x00, 0x00, 0x80, 0x0F, 0x00, 0x00, 0xC0, 0x07, 
  0x00, 0x00, 0xC0, 0x03, 0x00, 0x00, 0xC0, 0x01, 0x00, 0x00, 0x60, 0x00, 
  0x00, 0x00, 0x30, 0x00, 0x00, 0x00, 0x10, 0x00, 0x00, 0x00, 0x00, 0x00, 
  0x00, 0x00, 0x00, 0x00, 0x00, 0x00, 0x04, 0x00, };
