#define globe_12_width 32
#define globe_12_height 32
static char globe_12_bits[] = {
  0x00, 0x00, 0x04, 0x00, 0x00, 0xDC, 0x3F, 0x00, 0x00, 0x42, 0x7E, 0x00, 
  0x00, 0x00, 0xF8, 0x03, 0x20, 0x00, 0xF0, 0x07, 0x10, 0x00, 0xF0, 0x0F, 
  0x00, 0x00, 0xE0, 0x0F, 0x00, 0x00, 0xC0, 0x0F, 0x00, 0x00, 0x00, 0x07, 
  0x00, 0x00, 0x00, 0x06, 0x00, 0x00, 0x00, 0x14, 0x00, 0x00, 0x00, 0x18, 
  0x00, 0x00, 0x00, 0x20, 0x00, 0x00, 0x00, 0x80, 0x00, 0x00, 0x00, 0x80, 
  0x00, 0x00, 0x00, 0x80, 0x00, 0x00, 0x00, 0x80, 0x01, 0x00, 0x00, 0x80, 
  0x00, 0x00, 0x00, 0x80, 0x00, 0x00, 0x00, 0x80, 0x02, 0x00, 0x00, 0x80, 
  0x02, 0x00, 0x00, 0x00, 0x04, 0x00, 0x00, 0x40, 0x04, 0x00, 0x00, 0x40, 
  0x08, 0x00, 0x00, 0x20, 0x08, 0x00, 0x00, 0x00, 0x00, 0x00, 0x00, 0x10, 
  0x00, 0x00, 0x00, 0x08, 0x00, 0x00, 0x00, 0x00, 0x00, 0x00, 0x00, 0x00, 
  0x00, 0x00, 0x00, 0x00, 0x00, 0x00, 0x00, 0x00, };
