#define globe_11_width 32
#define globe_11_height 32
static char globe_11_bits[] = {
  0x00, 0x00, 0x06, 0x00, 0x00, 0xEC, 0x1F, 0x00, 0x00, 0x91, 0x9F, 0x00, 
  0x00, 0x00, 0xFE, 0x03, 0x00, 0x00, 0xFC, 0x07, 0x00, 0x00, 0xFC, 0x07, 
  0x00, 0x00, 0xFC, 0x07, 0x00, 0x00, 0xF0, 0x07, 0x00, 0x00, 0xF0, 0x01, 
  0x00, 0x00, 0xE0, 0x00, 0x00, 0x00, 0x80, 0x05, 0x00, 0x00, 0x00, 0x07, 
  0x00, 0x00, 0x00, 0x08, 0x00, 0x00, 0x00, 0x60, 0x00, 0x00, 0x00, 0xE0, 
  0x00, 0x00, 0x00, 0xE0, 0x00, 0x00, 0x00, 0xE0, 0x00, 0x00, 0x00, 0xE0, 
  0x01, 0x00, 0x00, 0xE0, 0x00, 0x00, 0x00, 0xE0, 0x00, 0x00, 0x00, 0xE0, 
  0x00, 0x00, 0x00, 0x40, 0x00, 0x00, 0x00, 0x60, 0x00, 0x00, 0x00, 0x60, 
  0x00, 0x00, 0x00, 0x30, 0x00, 0x00, 0x00, 0x10, 0x40, 0x00, 0x00, 0x08, 
  0x40, 0x00, 0x00, 0x04, 0x00, 0x00, 0x00, 0x00, 0x00, 0x00, 0x00, 0x00, 
  0x00, 0x00, 0x00, 0x00, 0x00, 0x00, 0x10, 0x00, };
