#define globe_09_width 32
#define globe_09_height 32
static char globe_09_bits[] = {
  0x00, 0x00, 0x03, 0x00, 0x00, 0xFC, 0x27, 0x00, 0x00, 0xF0, 0x13, 0x00, 
  0x00, 0xE0, 0xFF, 0x00, 0x00, 0xE0, 0xFF, 0x01, 0x00, 0xE0, 0x7F, 0x00, 
  0x00, 0xE0, 0x7F, 0x00, 0x00, 0xC0, 0x7F, 0x00, 0x00, 0x80, 0x47, 0x00, 
  0x00, 0x80, 0x07, 0x00, 0x00, 0x00, 0x26, 0x00, 0x00, 0x00, 0x1C, 0x00, 
  0x00, 0x00, 0x60, 0x00, 0x00, 0x00, 0x40, 0x0E, 0x00, 0x00, 0x00, 0x1F, 
  0x00, 0x00, 0x00, 0x3F, 0x00, 0x00, 0x00, 0x3F, 0x00, 0x00, 0x00, 0x7F, 
  0x00, 0x00, 0x00, 0x7F, 0x00, 0x00, 0x00, 0x7F, 0x00, 0x00, 0x00, 0x7E, 
  0x00, 0x00, 0x00, 0x3C, 0x00, 0x00, 0x00, 0x3E, 0x00, 0x00, 0x00, 0x1E, 
  0x00, 0x00, 0x00, 0x0F, 0x00, 0x00, 0x00, 0x07, 0x00, 0x00, 0x80, 0x01, 
  0x00, 0x00, 0x80, 0x00, 0x00, 0x00, 0x40, 0x00, 0x00, 0x00, 0x00, 0x00, 
  0x00, 0x00, 0x00, 0x00, 0x00, 0x00, 0x08, 0x00, };
