#define globe_13_width 32
#define globe_13_height 32
static char globe_13_bits[] = {
  0x00, 0x00, 0x04, 0x00, 0x00, 0xBC, 0x3F, 0x00, 0x00, 0x01, 0x79, 0x00, 
  0x80, 0x00, 0xE0, 0x03, 0x60, 0x00, 0xC0, 0x07, 0x10, 0x00, 0x80, 0x0F, 
  0x00, 0x00, 0x80, 0x1F, 0x08, 0x00, 0x00, 0x1E, 0x00, 0x00, 0x00, 0x1C, 
  0x00, 0x00, 0x00, 0x58, 0x00, 0x00, 0x00, 0x10, 0x00, 0x00, 0x00, 0x20, 
  0x00, 0x00, 0x00, 0x00, 0x00, 0x00, 0x00, 0x00, 0x01, 0x00, 0x00, 0x00, 
  0x00, 0x00, 0x00, 0x00, 0x01, 0x00, 0x00, 0x00, 0x06, 0x00, 0x00, 0x00, 
  0x04, 0x00, 0x00, 0x00, 0x00, 0x00, 0x00, 0x00, 0x02, 0x00, 0x00, 0x00, 
  0x0E, 0x00, 0x00, 0x00, 0x0C, 0x00, 0x00, 0x00, 0x1C, 0x00, 0x00, 0x00, 
  0x18, 0x00, 0x00, 0x00, 0x30, 0x00, 0x00, 0x00, 0x00, 0x04, 0x00, 0x00, 
  0x00, 0x00, 0x00, 0x00, 0x00, 0x00, 0x00, 0x00, 0x00, 0x00, 0x00, 0x00, 
  0x00, 0x00, 0x00, 0x00, 0x00, 0x10, 0x00, 0x00, };
