#define area_width 16
#define area_height 16
static char area_bits[] = {
  0x00, 0x00, 0x00, 0x00, 0xC0, 0x01, 0x38, 0x06, 0x06, 0x18, 0x02, 0x10, 
  0xF2, 0x11, 0x44, 0x10, 0x44, 0x20, 0x44, 0x20, 0x44, 0x20, 0x08, 0x20, 
  0x08, 0x3F, 0xF8, 0x00, 0x00, 0x00, 0x00, 0x00, };
