#define hole_width 16
#define hole_height 16
static char hole_bits[] = {
  0x00, 0x00, 0x00, 0x00, 0x38, 0x07, 0xC4, 0x08, 0x02, 0x10, 0x22, 0x22, 
  0x44, 0x41, 0x84, 0x20, 0x42, 0x11, 0x22, 0x0A, 0x02, 0x10, 0x34, 0x20, 
  0x58, 0x10, 0x40, 0x08, 0x80, 0x07, 0x00, 0x00, };
