#define newp_width 16
#define newp_height 16
static char newp_bits[] = {
  0x00, 0x00, 0x00, 0x00, 0x00, 0x00, 0x00, 0x00, 0xF0, 0x00, 0x68, 0x11, 
  0x94, 0x12, 0x0C, 0x3B, 0x0C, 0x13, 0x94, 0x12, 0x68, 0x01, 0xF0, 0x00, 
  0x00, 0x00, 0x00, 0x00, 0x00, 0x00, 0x00, 0x00, };
