#define pan_width 16
#define pan_height 16
static char pan_bits[] = {
  0x00, 0x00, 0x00, 0x00, 0x40, 0x01, 0xA0, 0x06, 0xA0, 0x0A, 0xA0, 0x1A, 
  0xA0, 0x2A, 0x20, 0x28, 0x2C, 0x20, 0x32, 0x20, 0x22, 0x10, 0x04, 0x10, 
  0x08, 0x08, 0x10, 0x04, 0x10, 0x02, 0x00, 0x00, };
