#define reg_width 16
#define reg_height 16
static char reg_bits[] = {
  0x00, 0x00, 0x00, 0x01, 0x80, 0x42, 0x00, 0x61, 0x00, 0x30, 0x00, 0x1C, 
  0x04, 0x06, 0x0A, 0x03, 0xC4, 0x01, 0x60, 0x04, 0x38, 0x0A, 0x1C, 0x04, 
  0x06, 0x00, 0x02, 0x00, 0x00, 0x00, 0x00, 0x00, };
