#define ruler_width 16
#define ruler_height 16
static char ruler_bits[] = {
  0x00, 0x00, 0x00, 0x00, 0xFE, 0x3F, 0x02, 0x00, 0x82, 0x10, 0xC2, 0x28, 
  0xA2, 0x20, 0x82, 0x10, 0x82, 0x30, 0x02, 0x00, 0x82, 0x20, 0x92, 0x24, 
  0x92, 0x24, 0xFE, 0x3F, 0x00, 0x00, 0x00, 0x00, };
