#define sp_width 16
#define sp_height 16
static char sp_bits[] = {
  0x00, 0x00, 0x00, 0x00, 0x20, 0x00, 0x20, 0x00, 0x70, 0x00, 0x70, 0x00, 
  0xF8, 0x00, 0xD8, 0x20, 0xDC, 0x31, 0x8C, 0x39, 0x8E, 0x1F, 0x00, 0x0F, 
  0x00, 0x07, 0x00, 0x02, 0x00, 0x00, 0x00, 0x00, };
