#define sp1_width 16
#define sp1_height 16
static char sp1_bits[] = {
  0x00, 0x00, 0x00, 0x00, 0x60, 0x00, 0x90, 0x00, 0x90, 0x30, 0x70, 0x48, 
  0xD8, 0x48, 0xD8, 0x30, 0x8C, 0x19, 0x92, 0x0D, 0x12, 0x07, 0x8C, 0x04, 
  0x80, 0x04, 0x00, 0x03, 0x00, 0x00, 0x00, 0x00, };
