#define sp2_width 16
#define sp2_height 16
static char sp2_bits[] = {
  0x00, 0x00, 0x00, 0x00, 0x20, 0x00, 0x20, 0x00, 0x70, 0x00, 0x70, 0x00, 
  0xD8, 0x00, 0xD8, 0x20, 0xDC, 0x31, 0x8C, 0x39, 0x8E, 0x1F, 0x00, 0x09, 
  0x00, 0x09, 0x00, 0x06, 0x00, 0x00, 0x00, 0x00, };
