#define sp3_width 16
#define sp3_height 16
static char sp3_bits[] = {
  0x00, 0x00, 0x00, 0x00, 0x20, 0x00, 0x20, 0x00, 0x70, 0x00, 0x70, 0x00, 
  0xD8, 0x30, 0xD8, 0x48, 0xDC, 0x49, 0x8C, 0x31, 0x8E, 0x19, 0x00, 0x0F, 
  0x00, 0x07, 0x00, 0x02, 0x00, 0x00, 0x00, 0x00, };
