#define xchgtri_width 16
#define xchgtri_height 16
static char xchgtri_bits[] = {
  0x00, 0x00, 0x00, 0x00, 0xFC, 0x1F, 0x04, 0x18, 0x14, 0x14, 0x24, 0x12, 
  0x04, 0x11, 0x84, 0x10, 0x44, 0x10, 0x24, 0x12, 0x14, 0x14, 0x0C, 0x10, 
  0xFC, 0x1F, 0x00, 0x00, 0x00, 0x00, 0x00, 0x00, };
