#define zdtm_width 16
#define zdtm_height 16
static char zdtm_bits[] = {
  0x00, 0x00, 0x00, 0x00, 0x3E, 0x07, 0xA0, 0x08, 0x10, 0x08, 0x08, 0x04, 
  0x04, 0x02, 0x02, 0x00, 0x3E, 0x02, 0x00, 0x00, 0x00, 0x00, 0xC8, 0x00, 
  0x34, 0x03, 0x02, 0x0C, 0x00, 0x70, 0x00, 0x80, };
