#define zoom_in_width 16
#define zoom_in_height 16
static char zoom_in_bits[] = {
  0x00, 0x00, 0x00, 0x0F, 0x80, 0x10, 0x40, 0x26, 0x20, 0x46, 0xA0, 0x5F, 
  0xA0, 0x5F, 0x20, 0x46, 0x40, 0x26, 0xC0, 0x10, 0x60, 0x0F, 0x30, 0x00, 
  0x18, 0x00, 0x00, 0x00, 0x00, 0x00, 0x00, 0x00, };
