#define zoom_out_width 16
#define zoom_out_height 16
static char zoom_out_bits[] = {
  0x00, 0x00, 0x00, 0x0F, 0x80, 0x10, 0x40, 0x20, 0x20, 0x40, 0x20, 0x4F, 
  0x20, 0x4F, 0x20, 0x40, 0x40, 0x20, 0xC0, 0x10, 0x60, 0x0F, 0x30, 0x00, 
  0x18, 0x00, 0x00, 0x00, 0x00, 0x00, 0x00, 0x00, };
